<?xml version="1.0" encoding="UTF-8"?>
<svg xmlns="http://www.w3.org/2000/svg" viewBox="0 0 121.3 121.3">
  <defs>
    <style>
      .cls-1 {
        fill: #fff;
      }

      .cls-2 {
        fill: #027aff;
      }
    </style>
  </defs>
  <g id="background">
    <circle class="cls-2" cx="60.7" cy="60.7" r="60.7"/>
  </g>
  <g id="icons">
    <g>
      <path class="cls-1" d="m91.8,99.7h-2.7c-.3-2.1-1.8-3.5-3.8-3.5s-.3,0-.5,0l-8.1-17.4c.8-.2,1.3-.9,1.3-1.6s-.8-1.7-1.7-1.7h-1.1l-4.1-9c2.3-1.1,4.6-2.6,6.5-4.5,4.1-4.1,6.3-9.6,6.6-15h2.6c.5,0,.9-.3.9-.9s-.3-.9-.9-.9h-2.6c-.2-5.4-2.4-10.9-6.6-15-2.9-2.9-6.2-4.8-9.9-5.8,0-3.3-2.8-6.1-6.1-6.1s-6.1,2.8-6.1,6.1c-3.6,1-7,2.9-9.9,5.7-4.1,4.1-6.3,9.6-6.6,15h-2.6c-.5,0-.9.3-.9.9s.3.9.9.9h2.6c.2,5.4,2.4,10.9,6.6,15,1.8,1.8,4,3.3,6.1,4.4l-4.1,9.1h-.9c-1,0-1.7.8-1.7,1.7s.4,1.3,1,1.6l-4.1,9.1c-.6-.2-1.4-.3-2.1-.3-1.8,0-3.5.7-4.9,2-1.3,1.4-2,3.1-2,4.9s.7,3.5,2,4.9c1.3,1.3,3,2,4.9,2s3.5-.7,4.9-2c1.3-1.3,2-3,2-4.9s-.7-3.5-2-4.9c-.3-.3-.8-.7-1.2-1l4.4-9.7h26.8l8.3,18c-.2,0-.3.3-.4.3-.6.6-1,1.5-1.2,2.4h-2.7c-.5,0-.9.3-.9.9s.3.9.9.9h13c.5,0,.9-.3.9-.9s-.3-.9-.9-.9Zm-49.4-2.8c-1.3,1.3-3.5,1.3-4.9,0-.6-.6-1-1.5-1-2.4s.3-1.8,1-2.4,1.5-1,2.4-1,1.8.3,2.4,1,1,1.5,1,2.4-.3,1.8-1,2.4ZM61.6,20.2c2.2,0,4.1,1.7,4.2,3.9-2.9-.5-5.7-.5-8.6,0,.3-2.2,2.2-3.9,4.3-3.9Zm-13.5,12.4c7.4-7.4,19.5-7.4,26.9,0,3.5,3.5,5.3,8,5.5,12.6h-37.9c.2-4.6,2-9.1,5.4-12.6Zm-5.4,14.4h38c-.2,4.6-2.1,9.1-5.5,12.6-7.4,7.4-19.5,7.4-26.9,0-3.5-3.5-5.4-8-5.5-12.6Zm7,28.5l3.8-8.5c2.6,1,5.4,1.6,8.1,1.6s5.3-.4,7.8-1.4l3.9,8.3h-23.6Zm34.3,23c.3-.3.8-.5,1.4-.5,1.2,0,1.8.8,2,1.7h-4.1c.2-.5.3-.9.7-1.2Z"/>
      <path class="cls-1" d="m67.6,41h-12.1c-.5,0-.9.3-.9.9s.3.9.9.9h12.1c.5,0,.9-.3.9-.9s-.3-.9-.9-.9Z"/>
    </g>
  </g>
</svg>