<?xml version="1.0" encoding="UTF-8"?>
<svg xmlns="http://www.w3.org/2000/svg" viewBox="0 0 124.97 125.6">
  <defs>
    <style>
      .c {
        fill: #fff;
      }

      .d {
        fill: #027aff;
      }
    </style>
  </defs>
  <g id="a" data-name="background">
    <circle class="d" cx="62.67" cy="62.81" r="60.67"/>
  </g>
  <g id="b" data-name="icons">
    <g>
      <path class="c" d="m93.81,101.89h-2.68c-.35-2.07-1.82-3.46-3.8-3.46-.17,0-.35,0-.52.09l-8.13-17.38c.78-.17,1.3-.86,1.3-1.64,0-.95-.78-1.73-1.73-1.73h-1.12l-4.15-8.99c2.33-1.12,4.58-2.59,6.48-4.5,4.15-4.15,6.31-9.6,6.57-15.04h2.59c.52,0,.86-.35.86-.86s-.35-.86-.86-.86h-2.59c-.17-5.45-2.42-10.89-6.57-15.04-2.85-2.94-6.22-4.84-9.86-5.79,0-3.29-2.77-6.05-6.05-6.05s-6.05,2.77-6.05,6.05c-3.63,1.04-7,2.94-9.86,5.71-4.15,4.15-6.31,9.6-6.57,15.04h-2.59c-.52,0-.86.35-.86.86s.35.86.86.86h2.59c.17,5.45,2.42,10.89,6.57,15.04,1.82,1.82,3.98,3.29,6.14,4.41l-4.06,9.08h-.86c-.95,0-1.73.78-1.73,1.73,0,.69.43,1.3,1.04,1.56l-4.15,9.08c-.61-.17-1.38-.26-2.07-.26-1.82,0-3.54.69-4.93,1.99-1.3,1.38-1.99,3.11-1.99,4.93s.69,3.54,1.99,4.93c1.3,1.3,3.03,1.99,4.93,1.99s3.54-.69,4.93-1.99c1.3-1.3,1.99-3.03,1.99-4.93s-.69-3.54-1.99-4.93c-.35-.35-.78-.69-1.21-.95l4.41-9.68h26.8l8.3,17.98c-.17.09-.35.26-.43.35-.61.61-1.04,1.47-1.21,2.42h-2.68c-.52,0-.86.35-.86.86s.35.86.86.86h12.97c.52,0,.86-.35.86-.86s-.35-.86-.86-.86Zm-49.45-2.77c-1.3,1.3-3.54,1.3-4.93,0-.61-.61-.95-1.47-.95-2.42s.35-1.82,1.04-2.42,1.47-1.04,2.42-1.04,1.82.35,2.42,1.04,1.04,1.47,1.04,2.42-.35,1.82-1.04,2.42ZM63.55,22.35c2.16,0,4.06,1.73,4.24,3.89-2.85-.52-5.71-.52-8.56,0,.26-2.16,2.16-3.89,4.32-3.89Zm-13.49,12.45c7.43-7.43,19.45-7.43,26.89,0,3.46,3.46,5.27,8.04,5.53,12.62h-37.86c.17-4.58,1.99-9.08,5.45-12.62Zm-5.45,14.35h37.95c-.17,4.58-2.07,9.08-5.53,12.62-7.43,7.43-19.45,7.43-26.89,0-3.54-3.54-5.36-8.04-5.53-12.62Zm7,28.53l3.8-8.47c2.59,1.04,5.36,1.56,8.13,1.56s5.27-.43,7.78-1.38l3.89,8.3h-23.6Zm34.32,23c.35-.35.78-.52,1.38-.52,1.21,0,1.82.78,1.99,1.73h-4.06c.17-.52.35-.86.69-1.21Z"/>
      <path class="c" d="m69.6,43.1h-12.1c-.52,0-.86.35-.86.86s.35.86.86.86h12.1c.52,0,.86-.35.86-.86s-.35-.86-.86-.86Z"/>
    </g>
  </g>
</svg>